<svg width="1367" height="939" viewBox="0 0 1367 939" fill="none" xmlns="http://www.w3.org/2000/svg">
<g clip-path="url(#clip0_4_148)">
<path d="M0 0H1367.26V939.098H0V0Z" fill="white"/>
<path d="M122.811 794.008H183.364V733.467H122.811V794.008Z" fill="black" fill-opacity="0.10196"/>
<path d="M122.811 794.008H183.364V733.467H122.811V794.008Z" stroke="black" stroke-width="4.2816" stroke-miterlimit="10" stroke-linecap="round" stroke-linejoin="round"/>
<path d="M1184.06 748.624C1175.56 762.239 1171.05 777.967 1171.05 794.009H1256.68L1184.06 748.624Z" fill="black" fill-opacity="0.10196"/>
<path d="M1184.06 748.624C1175.56 762.239 1171.05 777.967 1171.05 794.009H1256.68L1184.06 748.624Z" stroke="black" stroke-width="4.2816" stroke-miterlimit="10" stroke-linecap="round" stroke-linejoin="round"/>
<path d="M122.811 170.967C152.336 170.967 179.779 155.756 195.426 130.72L122.811 85.3351V170.967Z" fill="black" fill-opacity="0.10196"/>
<path d="M122.811 170.967C152.336 170.967 179.779 155.756 195.426 130.72L122.811 85.3351V170.967Z" stroke="black" stroke-width="4.2816" stroke-miterlimit="10" stroke-linecap="round" stroke-linejoin="round"/>
<path d="M122.811 85V793.673" stroke="black" stroke-width="4.2816" stroke-miterlimit="10" stroke-linecap="round" stroke-linejoin="round"/>
<path d="M1256.68 794.008L122.811 85.3351" stroke="black" stroke-width="4.2816" stroke-miterlimit="10" stroke-linecap="round" stroke-linejoin="round"/>
<path d="M122.811 794.009H1256.68" stroke="black" stroke-width="4.2816" stroke-miterlimit="10" stroke-linecap="round" stroke-linejoin="round"/>
<path d="M809.142 470.599C800.162 470.599 793.226 467.963 788.336 462.692C783.445 457.44 781 449.981 781 440.314C781 430.704 783.49 423.244 788.47 417.935C793.45 412.645 800.475 410 809.544 410C814.718 410 820.768 410.828 827.695 412.483V420.19C819.787 417.469 813.691 416.108 809.41 416.108C803.136 416.108 798.281 418.221 794.847 422.445C791.414 426.689 789.697 432.674 789.697 440.399C789.697 447.783 791.533 453.596 795.203 457.84C798.876 462.102 803.879 464.234 810.212 464.234C815.683 464.234 821.54 462.55 827.784 459.181V466.175C822.105 469.124 815.891 470.599 809.142 470.599Z" fill="black"/>
<path d="M76.051 446.68L66.2319 421.733L56.3842 446.68H76.051ZM84.757 468.745L78.4488 452.731H53.958L47.6498 468.745H40L62.9493 411H71.0558L93.5771 468.745H84.757Z" fill="black"/>
<path d="M672 881.037V823.28H686.986C692.755 823.28 697.186 824.373 700.279 826.558C703.371 828.743 704.917 831.887 704.917 835.992C704.917 843.008 700.962 847.988 693.051 850.932C702.478 853.817 707.192 859.035 707.192 866.588C707.192 871.285 705.631 874.867 702.508 877.335C699.385 879.803 694.895 881.037 689.038 881.037H672ZM680.118 874.926H681.813C687.819 874.926 691.699 874.54 693.454 873.767C696.843 872.34 698.537 869.694 698.537 865.829C698.537 862.379 697.006 859.517 693.945 857.243C690.883 854.969 687.047 853.832 682.439 853.832H680.118V874.926ZM680.118 848.657H682.75C687.121 848.657 690.511 847.721 692.92 845.848C695.327 843.976 696.531 841.33 696.531 837.91C696.531 832.23 692.13 829.39 683.329 829.39H680.118V848.657Z" fill="black"/>
<path d="M205.938 745.082L212.02 744.52C212.535 747.379 213.52 749.453 214.973 750.742C216.426 752.031 218.289 752.676 220.562 752.676C222.508 752.676 224.207 752.23 225.66 751.34C227.137 750.449 228.344 749.266 229.281 747.789C230.219 746.289 231.004 744.273 231.637 741.742C232.27 739.211 232.586 736.633 232.586 734.008C232.586 733.727 232.574 733.305 232.551 732.742C231.285 734.758 229.551 736.398 227.348 737.664C225.168 738.906 222.801 739.527 220.246 739.527C215.98 739.527 212.371 737.98 209.418 734.887C206.465 731.793 204.988 727.715 204.988 722.652C204.988 717.426 206.523 713.219 209.594 710.031C212.688 706.844 216.555 705.25 221.195 705.25C224.547 705.25 227.605 706.152 230.371 707.957C233.16 709.762 235.27 712.34 236.699 715.691C238.152 719.02 238.879 723.848 238.879 730.176C238.879 736.762 238.164 742.012 236.734 745.926C235.305 749.816 233.172 752.781 230.336 754.82C227.523 756.859 224.219 757.879 220.422 757.879C216.391 757.879 213.098 756.766 210.543 754.539C207.988 752.289 206.453 749.137 205.938 745.082ZM231.848 722.336C231.848 718.703 230.875 715.82 228.93 713.688C227.008 711.555 224.688 710.488 221.969 710.488C219.156 710.488 216.707 711.637 214.621 713.934C212.535 716.23 211.492 719.207 211.492 722.863C211.492 726.145 212.477 728.816 214.445 730.879C216.438 732.918 218.887 733.938 221.793 733.938C224.723 733.938 227.125 732.918 229 730.879C230.898 728.816 231.848 725.969 231.848 722.336ZM245.066 731.582C245.066 725.488 245.688 720.59 246.93 716.887C248.195 713.16 250.059 710.289 252.52 708.273C255.004 706.258 258.121 705.25 261.871 705.25C264.637 705.25 267.062 705.812 269.148 706.938C271.234 708.039 272.957 709.645 274.316 711.754C275.676 713.84 276.742 716.395 277.516 719.418C278.289 722.418 278.676 726.473 278.676 731.582C278.676 737.629 278.055 742.516 276.812 746.242C275.57 749.945 273.707 752.816 271.223 754.855C268.762 756.871 265.645 757.879 261.871 757.879C256.902 757.879 253 756.098 250.164 752.535C246.766 748.246 245.066 741.262 245.066 731.582ZM251.57 731.582C251.57 740.043 252.555 745.68 254.523 748.492C256.516 751.281 258.965 752.676 261.871 752.676C264.777 752.676 267.215 751.27 269.184 748.457C271.176 745.645 272.172 740.02 272.172 731.582C272.172 723.098 271.176 717.461 269.184 714.672C267.215 711.883 264.754 710.488 261.801 710.488C258.895 710.488 256.574 711.719 254.84 714.18C252.66 717.32 251.57 723.121 251.57 731.582Z" fill="black"/>
<circle cx="303" cy="714" r="12.5" stroke="black" stroke-width="5"/>
</g>
<defs>
<clipPath id="clip0_4_148">
<rect width="1367" height="939" fill="white"/>
</clipPath>
</defs>
</svg>
